<svg width="110" height="96" viewBox="0 0 110 96" fill="none" xmlns="http://www.w3.org/2000/svg">
<path d="M61.986 4.01025L108.419 83.9693C109.127 85.1885 109.5 86.5716 109.5 87.9794C109.5 89.3873 109.127 90.7704 108.419 91.9897C107.711 93.2089 106.693 94.2214 105.467 94.9254C104.24 95.6293 102.849 96 101.433 96H8.56673C7.1507 96 5.75963 95.6293 4.53333 94.9254C3.30703 94.2214 2.28871 93.2089 1.58071 91.9897C0.872715 90.7704 0.499991 89.3873 0.5 87.9794C0.500009 86.5716 0.872751 85.1885 1.58076 83.9693L48.014 4.01025C51.1171 -1.33675 58.8775 -1.33675 61.986 4.01025ZM55 67.3829C53.5737 67.3829 52.2058 67.9462 51.1972 68.949C50.1886 69.9517 49.622 71.3118 49.622 72.7299C49.622 74.148 50.1886 75.508 51.1972 76.5108C52.2058 77.5135 53.5737 78.0769 55 78.0769C56.4263 78.0769 57.7942 77.5135 58.8028 76.5108C59.8113 75.508 60.3779 74.148 60.3779 72.7299C60.3779 71.3118 59.8113 69.9517 58.8028 68.949C57.7942 67.9462 56.4263 67.3829 55 67.3829ZM55 29.9539C53.6828 29.9541 52.4114 30.4349 51.427 31.3052C50.4427 32.1754 49.8138 33.3746 49.6597 34.6753L49.622 35.3009V56.6889C49.6236 58.0517 50.1484 59.3625 51.0894 60.3535C52.0304 61.3445 53.3164 61.9409 54.6848 62.0208C56.0532 62.1006 57.4006 61.658 58.4517 60.7833C59.5029 59.9085 60.1784 58.6678 60.3403 57.3145L60.3779 56.6889V35.3009C60.3779 33.8828 59.8113 32.5227 58.8028 31.52C57.7942 30.5172 56.4263 29.9539 55 29.9539Z" fill="#43A99E"/>
</svg>
