<svg width="96" height="96" viewBox="0 0 96 96" fill="none" xmlns="http://www.w3.org/2000/svg">
<path d="M93.7501 23.6967L72.2997 2.25007C71.5865 1.53672 70.7398 0.97085 69.808 0.58478C68.8761 0.19871 67.8773 0 66.8687 0C65.86 0 64.8612 0.19871 63.9294 0.58478C62.9975 0.97085 62.1508 1.53672 61.4377 2.25007L2.25115 61.4396C1.53492 62.1502 0.967074 62.996 0.58062 63.928C0.194166 64.86 -0.00318439 65.8595 3.88543e-05 66.8684V88.3199C3.88543e-05 90.3568 0.809148 92.3103 2.24937 93.7506C3.6896 95.1909 5.64296 96 7.67974 96H88.3167C89.3351 96 90.3117 95.5954 91.0318 94.8753C91.752 94.1551 92.1565 93.1784 92.1565 92.16C92.1565 91.1415 91.752 90.1648 91.0318 89.4446C90.3117 88.7245 89.3351 88.3199 88.3167 88.3199H39.9921L93.7501 34.5593C94.4634 33.8461 95.0292 32.9993 95.4153 32.0674C95.8013 31.1355 96 30.1367 96 29.128C96 28.1193 95.8013 27.1204 95.4153 26.1885C95.0292 25.2566 94.4634 24.4099 93.7501 23.6967ZM49.9181 24.6279L57.929 32.6392L17.2794 73.2909L9.26848 65.2796L49.9181 24.6279ZM7.67974 88.3199V74.5485L21.4504 88.3199H7.67974ZM30.7189 86.7311L17.2794 73.2909L57.929 32.6392L71.3685 46.0794L30.7189 86.7311ZM76.7971 40.6505L55.3515 19.1991L66.8711 7.67893L88.3167 29.1304L76.7971 40.6505Z" fill="#D35E24"/>
</svg>
