<svg width="96" height="100" viewBox="0 0 96 100" fill="none" xmlns="http://www.w3.org/2000/svg">
<path fill-rule="evenodd" clip-rule="evenodd" d="M56.5295 2.7296C54.7556 2 52.5022 2 48.0003 2C43.4985 2 41.2499 2 39.4712 2.7296C37.1098 3.70021 35.2301 5.57007 34.2454 7.928C33.7947 8.9984 33.6221 10.2512 33.5502 12.0704C33.5182 13.3885 33.151 14.6766 32.4832 15.8131C31.8154 16.9495 30.8692 17.8966 29.7339 18.5648C28.5773 19.2085 27.277 19.5495 25.9537 19.5562C24.6304 19.5629 23.3268 19.2351 22.1637 18.6032C20.5432 17.7488 19.3686 17.2784 18.2083 17.1248C15.67 16.7911 13.1027 17.4742 11.0648 19.0256C9.54018 20.1872 8.41351 22.1264 6.16497 26C3.91163 29.8736 2.78975 31.808 2.53565 33.704C2.20005 36.2288 2.89043 38.7824 4.45339 40.8032C5.16295 41.7248 6.16497 42.4976 7.71354 43.4672C10.0004 44.8928 11.4675 47.3216 11.4675 50C11.4675 52.6784 10.0004 55.1072 7.71833 56.528C6.16497 57.5024 5.16295 58.2752 4.44859 59.1968C3.6771 60.1949 3.11083 61.3362 2.78249 62.5547C2.45415 63.7732 2.37025 65.0448 2.53565 66.296C2.78975 68.1872 3.91163 70.1264 6.16497 74C8.4183 77.8736 9.54018 79.808 11.0648 80.9744C13.0976 82.5248 15.6673 83.2064 18.2083 82.8752C19.3686 82.7216 20.5432 82.2512 22.1637 81.3968C23.3274 80.764 24.6319 80.4358 25.9561 80.4425C27.2804 80.4492 28.5815 80.7907 29.7387 81.4352C32.0688 82.7792 33.4495 85.2512 33.5502 87.9296C33.6221 89.7536 33.7947 91.0016 34.2454 92.072C35.2234 94.424 37.1028 96.296 39.4712 97.2704C41.2451 98 43.4985 98 48.0003 98C52.5022 98 54.7556 98 56.5295 97.2704C58.8909 96.2998 60.7706 94.4299 61.7553 92.072C62.206 91.0016 62.3786 89.7536 62.4505 87.9296C62.5464 85.2512 63.9319 82.7744 66.2668 81.4352C67.4234 80.7915 68.7237 80.4505 70.047 80.4438C71.3703 80.4371 72.6739 80.7649 73.837 81.3968C75.4575 82.2512 76.6321 82.7216 77.7924 82.8752C80.3334 83.2112 82.9031 82.5248 84.9359 80.9744C86.4605 79.8128 87.5872 77.8736 89.8357 74C92.0891 70.1264 93.2109 68.192 93.465 66.296C93.6298 65.0445 93.5451 63.7727 93.2159 62.5542C92.8868 61.3357 92.3196 60.1946 91.5473 59.1968C90.8377 58.2752 89.8357 57.5024 88.2872 56.5328C86.0003 55.1072 84.5332 52.6784 84.5332 50C84.5332 47.3216 86.0003 44.8928 88.2824 43.472C89.8357 42.4976 90.8377 41.7248 91.5521 40.8032C92.3236 39.8051 92.8899 38.6638 93.2182 37.4453C93.5465 36.2267 93.6304 34.9552 93.465 33.704C93.2109 31.8128 92.0891 29.8736 89.8357 26C87.5824 22.1264 86.4605 20.192 84.9359 19.0256C82.898 17.4742 80.3307 16.7911 77.7924 17.1248C76.6321 17.2784 75.4575 17.7488 73.837 18.6032C72.6733 19.236 71.3688 19.5642 70.0446 19.5575C68.7203 19.5508 67.4192 19.2093 66.262 18.5648C65.1276 17.896 64.1823 16.9486 63.5154 15.8122C62.8485 14.6759 62.482 13.388 62.4505 12.0704C62.3786 10.2464 62.206 8.9984 61.7553 7.928C61.268 6.76033 60.5556 5.70024 59.659 4.80828C58.7623 3.91632 57.6989 3.20997 56.5295 2.7296ZM48.0003 64.4C56.0069 64.4 62.4936 57.9536 62.4936 50C62.4936 42.0464 56.0021 35.6 48.0003 35.6C39.9938 35.6 33.5071 42.0464 33.5071 50C33.5071 57.9536 39.9986 64.4 48.0003 64.4Z" fill="#43A99E" stroke="white" stroke-width="3"/>
</svg>
